<mxfile host="Electron" modified="2024-02-10T06:16:27.537Z" agent="Mozilla/5.0 (Macintosh; Intel Mac OS X 10_15_7) AppleWebKit/537.36 (KHTML, like Gecko) draw.io/23.0.2 Chrome/120.0.6099.109 Electron/28.1.0 Safari/537.36" etag="-gH-UaQQ71fElzhkeedb" version="23.0.2" type="device">
  <diagram name="페이지-1" id="2FiC-DSWjXSvHMc0JOlK">
    <mxGraphModel dx="1114" dy="894" grid="1" gridSize="10" guides="1" tooltips="1" connect="1" arrows="1" fold="1" page="1" pageScale="1" pageWidth="827" pageHeight="1169" math="0" shadow="0">
      <root>
        <mxCell id="0" />
        <mxCell id="1" parent="0" />
        <mxCell id="kWGztRFfS3BnR0EESV-5-1" value="AccountRepository" style="rounded=0;whiteSpace=wrap;html=1;" vertex="1" parent="1">
          <mxGeometry x="520" y="120" width="120" height="60" as="geometry" />
        </mxCell>
        <mxCell id="kWGztRFfS3BnR0EESV-5-5" style="edgeStyle=orthogonalEdgeStyle;rounded=0;orthogonalLoop=1;jettySize=auto;html=1;entryX=0;entryY=0.5;entryDx=0;entryDy=0;endArrow=block;endFill=1;" edge="1" parent="1" source="kWGztRFfS3BnR0EESV-5-2" target="kWGztRFfS3BnR0EESV-5-1">
          <mxGeometry relative="1" as="geometry" />
        </mxCell>
        <mxCell id="kWGztRFfS3BnR0EESV-5-2" value="AccountService" style="rounded=0;whiteSpace=wrap;html=1;" vertex="1" parent="1">
          <mxGeometry x="320" y="120" width="120" height="60" as="geometry" />
        </mxCell>
        <mxCell id="kWGztRFfS3BnR0EESV-5-4" style="edgeStyle=orthogonalEdgeStyle;rounded=0;orthogonalLoop=1;jettySize=auto;html=1;entryX=0;entryY=0.5;entryDx=0;entryDy=0;endArrow=block;endFill=1;" edge="1" parent="1" source="kWGztRFfS3BnR0EESV-5-3" target="kWGztRFfS3BnR0EESV-5-2">
          <mxGeometry relative="1" as="geometry" />
        </mxCell>
        <mxCell id="kWGztRFfS3BnR0EESV-5-7" style="edgeStyle=orthogonalEdgeStyle;rounded=0;orthogonalLoop=1;jettySize=auto;html=1;curved=1;startArrow=block;startFill=1;endArrow=none;endFill=0;fillColor=#f8cecc;strokeColor=#b85450;" edge="1" parent="1" source="kWGztRFfS3BnR0EESV-5-3" target="kWGztRFfS3BnR0EESV-5-6">
          <mxGeometry relative="1" as="geometry" />
        </mxCell>
        <mxCell id="kWGztRFfS3BnR0EESV-5-3" value="AccountConroller" style="rounded=0;whiteSpace=wrap;html=1;" vertex="1" parent="1">
          <mxGeometry x="120" y="120" width="120" height="60" as="geometry" />
        </mxCell>
        <mxCell id="kWGztRFfS3BnR0EESV-5-6" value="컨트롤러 계층에 권한 부여 적용" style="text;html=1;strokeColor=#b85450;fillColor=#f8cecc;align=center;verticalAlign=middle;whiteSpace=wrap;rounded=0;" vertex="1" parent="1">
          <mxGeometry x="160" y="230" width="170" height="30" as="geometry" />
        </mxCell>
      </root>
    </mxGraphModel>
  </diagram>
</mxfile>
